<svg xmlns="http://www.w3.org/2000/svg" version="1.1" xmlns:xlink="http://www.w3.org/1999/xlink" xmlns:svgjs="http://svgjs.com/svgjs" width="1200" height="560" preserveAspectRatio="none" viewBox="0 0 1200 560"><g mask="url(&quot;#SvgjsMask1267&quot;)" fill="none"><rect width="1200" height="560" x="0" y="0" fill="url(#SvgjsLinearGradient1268)"></rect><path d="M911.75 258.2 a51.21 51.21 0 1 0 102.42 0 a51.21 51.21 0 1 0 -102.42 0z" fill="#e73635"></path><path d="M456.34 98.4L500.32 98.4L500.32 113.78L456.34 113.78z" stroke="#037b0b"></path><path d="M323.36 321.29L325.81 321.29L325.81 375.25L323.36 375.25z" stroke="#e73635"></path><path d="M637.31 200.25L678.36 200.25L678.36 241.3L637.31 241.3z" fill="#d3b714"></path><path d="M293.73 57.42L349.22 57.42L349.22 112.91L293.73 112.91z" fill="#037b0b"></path><path d="M532.52 287.49L588.47 287.49L588.47 343.44L532.52 343.44z" stroke="#d3b714"></path><path d="M1056.44 71.29L1064.19 71.29L1064.19 79.04L1056.44 79.04z" fill="#e73635"></path><path d="M1062.49 535.14a53.58 53.58 0 1 0 106.98 6.26z" fill="#e73635"></path><path d="M875.4 130.37 a0.14 0.14 0 1 0 0.28 0 a0.14 0.14 0 1 0 -0.28 0z" stroke="#d3b714"></path><path d="M751.69 470.41a40.47 40.47 0 1 0 44.46 67.63z" stroke="#037b0b"></path><path d="M658.61 343.56 a3.38 3.38 0 1 0 6.76 0 a3.38 3.38 0 1 0 -6.76 0z" stroke="#d3b714"></path><path d="M1009.22 424.03L1054.83 424.03L1054.83 424.85L1009.22 424.85z" fill="#037b0b"></path><path d="M148.84 336.74L173.64 336.74L173.64 361.54L148.84 361.54z" fill="#037b0b"></path><path d="M933.93 355.72L949.91 355.72L949.91 371.7L933.93 371.7z" stroke="#037b0b"></path><path d="M944.31 396.36 a25.64 25.64 0 1 0 51.28 0 a25.64 25.64 0 1 0 -51.28 0z" fill="#037b0b"></path><path d="M921.99 435.42L947.12 435.42L947.12 435.51L921.99 435.51z" stroke="#d3b714"></path><path d="M787.55 500.08L801.35 500.08L801.35 532.64L787.55 532.64z" fill="#037b0b"></path><path d="M370.53 415.53a47.54 47.54 0 1 0-85.2 42.2z" stroke="#037b0b"></path><path d="M74.31 289.46L81.62 289.46L81.62 296.93L74.31 296.93z" fill="#d3b714"></path><path d="M509.43 537.69 a49.32 49.32 0 1 0 98.64 0 a49.32 49.32 0 1 0 -98.64 0z" stroke="#037b0b"></path><path d="M755.48 350.25a53.12 53.12 0 1 0-100.85-33.41z" stroke="#e73635"></path><path d="M1035.59 461.54L1082.36 461.54L1082.36 508.31L1035.59 508.31z" fill="#d3b714"></path><path d="M561.95 188.13a3.45 3.45 0 1 0 3.42 6z" fill="#d3b714"></path><path d="M767.76 132.94 a38.27 38.27 0 1 0 76.54 0 a38.27 38.27 0 1 0 -76.54 0z" fill="#e73635"></path><path d="M-40.13 85.72 a41.46 41.46 0 1 0 82.92 0 a41.46 41.46 0 1 0 -82.92 0z" fill="#d3b714"></path><path d="M719.7 175.81L769.17 175.81L769.17 228.33L719.7 228.33z" fill="#037b0b"></path><path d="M634.59 389.99L683.14 389.99L683.14 438.54L634.59 438.54z" stroke="#e73635"></path></g><defs><mask id="SvgjsMask1267"><rect width="1200" height="560" fill="#ffffff"></rect></mask><linearGradient x1="13.33%" y1="-28.57%" x2="86.67%" y2="128.57%" gradientUnits="userSpaceOnUse" id="SvgjsLinearGradient1268"><stop stop-color="#0e2a47" offset="0"></stop><stop stop-color="rgba(9, 177, 68, 0)" offset="1"></stop></linearGradient></defs></svg>